<?xml version="1.0" standalone="no"?>
<!DOCTYPE svg PUBLIC "-//W3C//DTD SVG 20010904//EN"
 "http://www.w3.org/TR/2001/REC-SVG-20010904/DTD/svg10.dtd">
<svg version="1.0" xmlns="http://www.w3.org/2000/svg"
 width="256.000000pt" height="256.000000pt" viewBox="0 0 256.000000 256.000000"
 preserveAspectRatio="xMidYMid meet">
<metadata>
Created by potrace 1.11, written by Peter Selinger 2001-2013
</metadata>
<g transform="translate(0.000000,256.000000) scale(0.100000,-0.100000)"
fill="#000000" stroke="none">
<path d="M832 2540 c-51 -32 -75 -97 -76 -200 0 -97 7 -136 35 -199 10 -24 17
-46 14 -49 -2 -3 -69 -6 -147 -7 -79 -1 -150 -5 -160 -9 -23 -10 -40 -58 -32
-90 12 -51 33 -56 216 -56 159 0 168 -1 188 -22 29 -32 25 -69 -16 -139 -96
-163 -181 -390 -223 -594 -27 -131 -30 -149 -37 -220 -3 -33 -7 -71 -9 -85 -2
-14 -4 -36 -4 -50 -1 -23 -8 -27 -70 -43 -103 -27 -199 -95 -238 -171 -59
-112 -48 -282 26 -398 200 -314 661 -260 786 92 33 92 25 224 -18 306 -42 82
-154 155 -267 176 l-61 12 5 70 c16 219 79 475 156 641 19 40 29 53 29 38 1
-31 65 -93 99 -95 51 -2 77 4 124 29 103 56 208 199 208 284 0 34 2 37 23 33
12 -3 45 -5 74 -5 l52 0 36 -59 c93 -154 198 -421 230 -590 24 -127 32 -182
40 -276 l6 -71 -49 -6 c-66 -8 -169 -55 -220 -102 -23 -20 -54 -62 -69 -93
-25 -51 -28 -67 -28 -157 1 -117 22 -185 85 -264 82 -104 187 -159 320 -168
220 -16 417 142 454 362 35 204 -75 366 -281 415 -29 6 -53 13 -54 13 0 1 -2
29 -5 62 -9 115 -34 272 -63 390 -47 191 -91 299 -229 567 l-24 48 28 34 29
35 167 0 c91 1 174 4 183 7 24 10 46 60 39 89 -13 53 -39 61 -193 61 l-140 -1
0 85 c0 97 -6 146 -28 209 -69 203 -233 212 -432 25 -70 -65 -80 -72 -86 -55
-10 33 -143 148 -202 177 -77 36 -148 41 -191 14z"/>
</g>
</svg>
